<?xml version="1.0" encoding="UTF-8" standalone="no"?>
<!-- Created with Inkscape (http://www.inkscape.org/) -->

<svg
   xmlns:dc="http://purl.org/dc/elements/1.1/"
   xmlns:cc="http://creativecommons.org/ns#"
   xmlns:rdf="http://www.w3.org/1999/02/22-rdf-syntax-ns#"
   xmlns:svg="http://www.w3.org/2000/svg"
   xmlns="http://www.w3.org/2000/svg"
   xmlns:sodipodi="http://sodipodi.sourceforge.net/DTD/sodipodi-0.dtd"
   xmlns:inkscape="http://www.inkscape.org/namespaces/inkscape"
   width="64px"
   height="64px"
   id="svg2985"
   version="1.1"
   inkscape:version="0.48.4 r9939"
   sodipodi:docname="jsdc-logo.svg"
   inkscape:export-filename="C:\Web\JSDC Server\htdocs\img\jsdc-logo-128.png"
   inkscape:export-xdpi="180"
   inkscape:export-ydpi="180">
  <sodipodi:namedview
     id="base"
     pagecolor="#ffffff"
     bordercolor="#666666"
     borderopacity="1.0"
     inkscape:pageopacity="0.0"
     inkscape:pageshadow="2"
     inkscape:zoom="7.7781746"
     inkscape:cx="45.004329"
     inkscape:cy="32.162242"
     inkscape:current-layer="layer1"
     showgrid="true"
     inkscape:document-units="px"
     inkscape:grid-bbox="true"
     inkscape:window-width="1600"
     inkscape:window-height="847"
     inkscape:window-x="1912"
     inkscape:window-y="292"
     inkscape:window-maximized="1" />
  <defs
     id="defs2987" />
  <metadata
     id="metadata2990">
    <rdf:RDF>
      <cc:Work
         rdf:about="">
        <dc:format>image/svg+xml</dc:format>
        <dc:type
           rdf:resource="http://purl.org/dc/dcmitype/StillImage" />
        <dc:title></dc:title>
      </cc:Work>
    </rdf:RDF>
  </metadata>
  <g
     inkscape:groupmode="layer"
     inkscape:label="Layer 1"
     id="layer1">
    <path
       style="opacity:1;fill:#000000;fill-opacity:1;fill-rule:evenodd;stroke:#000000;stroke-width:1.00005019000000010;stroke-linejoin:miter;stroke-miterlimit:4;stroke-opacity:1"
       d="M 28.21875 0.71875 C 26.00531 0.9833079 23.860438 1.4883623 21.8125 2.1875 L 21.6875 2.5625 L 21.71875 6.5625 C 20.61988 7.0066434 19.553939 7.5168136 18.53125 8.09375 L 15.40625 5.59375 L 15.03125 5.46875 C 13.178856 6.6552459 11.466772 8.0259127 9.90625 9.5625 L 9.9375 9.9375 L 11.71875 13.53125 C 10.91846 14.409011 10.182097 15.336034 9.5 16.3125 L 5.59375 15.40625 L 5.1875 15.4375 C 4.0436131 17.28658 3.0896003 19.266409 2.34375 21.34375 L 2.5625 21.6875 L 5.6875 24.1875 C 5.3556378 25.307577 5.0940561 26.44999 4.90625 27.625 L 1 28.5 L 0.65625 28.71875 C 0.54458272 29.797457 0.5 30.891765 0.5 32 C 0.5 33.108235 0.54458272 34.202543 0.65625 35.28125 L 1 35.5 L 4.90625 36.375 C 5.0940561 37.55001 5.3556378 38.692423 5.6875 39.8125 L 2.5625 42.3125 L 2.34375 42.65625 C 3.0896003 44.733591 4.0436131 46.71342 5.1875 48.5625 L 5.59375 48.59375 L 9.5 47.6875 C 10.182097 48.663966 10.91846 49.590989 11.71875 50.46875 L 9.9375 54.0625 L 9.90625 54.4375 C 11.466772 55.974087 13.178856 57.344754 15.03125 58.53125 L 15.40625 58.40625 L 18.53125 55.90625 C 19.553939 56.483186 20.61988 56.993357 21.71875 57.4375 L 21.6875 61.4375 L 21.8125 61.8125 C 23.860438 62.511638 26.00531 63.016692 28.21875 63.28125 L 28.5 63 L 30.25 59.375 C 30.830315 59.411585 31.410411 59.4375 32 59.4375 C 32.589589 59.4375 33.169685 59.411585 33.75 59.375 L 35.5 63 L 35.78125 63.28125 C 37.99469 63.016692 40.139562 62.511638 42.1875 61.8125 L 42.3125 61.4375 L 42.28125 57.4375 C 43.38012 56.993357 44.446061 56.483186 45.46875 55.90625 L 48.59375 58.40625 L 48.96875 58.53125 C 50.821144 57.344754 52.533228 55.974087 54.09375 54.4375 L 54.0625 54.0625 L 52.28125 50.46875 C 53.08154 49.590989 53.817903 48.663966 54.5 47.6875 L 58.40625 48.59375 L 58.8125 48.5625 C 59.956387 46.71342 60.9104 44.733591 61.65625 42.65625 L 61.4375 42.3125 L 58.3125 39.8125 C 58.644362 38.692423 58.905944 37.55001 59.09375 36.375 L 63 35.5 L 63.34375 35.28125 C 63.455417 34.202543 63.5 33.108235 63.5 32 C 63.5 30.891765 63.455417 29.797457 63.34375 28.71875 L 63 28.5 L 59.09375 27.625 C 58.905944 26.44999 58.644362 25.307577 58.3125 24.1875 L 61.4375 21.6875 L 61.65625 21.34375 C 60.9104 19.266409 59.956387 17.28658 58.8125 15.4375 L 58.40625 15.40625 L 54.5 16.3125 C 53.817903 15.336034 53.08154 14.409011 52.28125 13.53125 L 54.0625 9.9375 L 54.09375 9.5625 C 52.533228 8.0259127 50.821144 6.6552459 48.96875 5.46875 L 48.59375 5.59375 L 45.46875 8.09375 C 44.446061 7.5168136 43.38012 7.0066434 42.28125 6.5625 L 42.3125 2.5625 L 42.1875 2.1875 C 40.139562 1.4883623 37.99469 0.9833079 35.78125 0.71875 L 35.5 1 L 33.75 4.625 C 33.169685 4.5884153 32.589589 4.5625 32 4.5625 C 31.410411 4.5625 30.830315 4.5884153 30.25 4.625 L 28.5 1 L 28.21875 0.71875 z M 32 8.71875 C 44.853785 8.71875 55.28125 19.146215 55.28125 32 C 55.28125 44.853785 44.853785 55.28125 32 55.28125 C 19.146215 55.28125 8.71875 44.853785 8.71875 32 C 8.71875 31.598319 8.729878 31.209198 8.75 30.8125 C 9.373781 18.514871 19.547896 8.71875 32 8.71875 z "
       id="path3004" />
    <path
       sodipodi:type="arc"
       style="opacity:0.89224135000000004;fill:none;stroke:#000000;stroke-width:1;stroke-linejoin:miter;stroke-miterlimit:4;stroke-opacity:1;stroke-dasharray:none"
       id="path3010"
       sodipodi:cx="32.012653"
       sodipodi:cy="32.115913"
       sodipodi:rx="31.498392"
       sodipodi:ry="31.498392"
       d="m 63.511045,32.115913 a 31.498392,31.498392 0 1 1 -62.99678375,0 31.498392,31.498392 0 1 1 62.99678375,0 z"
       transform="matrix(0.69067544,0,0,0.69067544,9.8896466,9.8183274)" />
    <g
       id="g3479"
       transform="translate(32,32)"
       inkscape:label="Gear14"
       style="fill:#ff00ff" />
    <path
       style="fill:#000000;stroke:none"
       d="m 33.65625,10.3125 -12.3125,16.65625 12.25,0.4375 -9.9375,15.25 7.1875,0.375 -6.6875,8.875 17.75,-9.5 L 34.96875,39.5625 51.5625,25.6875 38.5,25.40625 48.21875,17.5625 c -3.640694,-4.088489 -8.769019,-6.813377 -14.5625,-7.25 z"
       id="path3511"
       inkscape:connector-curvature="0"
       sodipodi:nodetypes="cccccccccccc" />
  </g>
</svg>
